<svg xmlns="http://www.w3.org/2000/svg" width="292.18" height="71.27" viewBox="0 0 292.18 71.27"><defs><style>.cls-1{fill:#fff;}.cls-2{fill:none;stroke:#fff;stroke-miterlimit:10;stroke-width:3px;}</style></defs><title>suritag_admin</title><g id="Capa_2" data-name="Capa 2"><g id="Capa_3" data-name="Capa 3"><path class="cls-1" d="M80.25,60.64l.48,0L83,54.52h.5l2.29,6.08.49,0V61H84.71v-.39l.57,0-.53-1.46H81.82l-.54,1.46.57,0V61h-1.6Zm1.75-2h2.57l-1.26-3.45h0Z"/><path class="cls-1" d="M92.32,54.52a2.62,2.62,0,0,1,2,.8,2.79,2.79,0,0,1,.78,2v.84a2.79,2.79,0,0,1-.78,2,2.61,2.61,0,0,1-2,.79H89.71v-.39l.72-.06V55l-.72-.06v-.4h2.61ZM91,55v5.6h1.35a2.06,2.06,0,0,0,1.59-.68,2.4,2.4,0,0,0,.63-1.7v-.85a2.4,2.4,0,0,0-.63-1.7A2.08,2.08,0,0,0,92.32,55Z"/><path class="cls-1" d="M105.18,55.31h0L102.74,61h-.38L100,55.33h0l0,2.83v2.42l.73.06V61h-2v-.39l.73-.06V55l-.73-.06v-.4h1.43l2.39,5.73h0l2.4-5.73h1.44v.4l-.73.06v5.6l.73.06V61h-2v-.39l.73-.06V58.16Z"/><path class="cls-1" d="M109.87,54.92v-.4h2v.4l-.73.06v5.6l.73.06V61h-2v-.39l.73-.06V55Z"/><path class="cls-1" d="M121.58,54.52v.4l-.73.06V61h-.54l-3.69-5.6h0v5.14l.73.06V61h-2v-.39l.72-.06V55l-.72-.06v-.4h1.26l3.7,5.59h0V55l-.72-.06v-.4h2Z"/><path class="cls-1" d="M125,54.92v-.4h2v.4l-.73.06v5.6l.73.06V61h-2v-.39l.73-.06V55Z"/><path class="cls-1" d="M135.08,56.45h-.44l-.07-.92a1.56,1.56,0,0,0-.66-.47,2.43,2.43,0,0,0-1-.18,2,2,0,0,0-1.26.35,1.07,1.07,0,0,0-.45.87,1,1,0,0,0,.41.82,3.77,3.77,0,0,0,1.4.58,4.19,4.19,0,0,1,1.6.72,1.52,1.52,0,0,1,.54,1.21,1.44,1.44,0,0,1-.63,1.23,2.68,2.68,0,0,1-1.62.46,3.46,3.46,0,0,1-1.3-.24,2.58,2.58,0,0,1-1-.7V59h.43l.08,1a2,2,0,0,0,.76.51,2.91,2.91,0,0,0,1,.17,2.07,2.07,0,0,0,1.24-.34,1,1,0,0,0,.48-.9,1.12,1.12,0,0,0-.4-.87,3.76,3.76,0,0,0-1.39-.59,4.26,4.26,0,0,1-1.61-.7,1.39,1.39,0,0,1-.55-1.16,1.46,1.46,0,0,1,.62-1.21,2.6,2.6,0,0,1,1.62-.47,3.15,3.15,0,0,1,1.26.24,2.24,2.24,0,0,1,.88.67Z"/><path class="cls-1" d="M143.81,54.52v1.37h-.47l0-.91h-1.81v5.6l.73.06V61h-2v-.39l.73-.06V55h-1.81l0,.91h-.47V54.52Z"/><path class="cls-1" d="M149.86,54.53a2.5,2.5,0,0,1,1.6.45A1.6,1.6,0,0,1,152,56.3a1.51,1.51,0,0,1-.3.92,1.63,1.63,0,0,1-.84.59,1.43,1.43,0,0,1,.87.54,1.7,1.7,0,0,1,.27,1v.59a1,1,0,0,0,.1.51.4.4,0,0,0,.33.18h.22V61h-.34a.7.7,0,0,1-.66-.32,1.52,1.52,0,0,1-.19-.79v-.58a1.21,1.21,0,0,0-.38-.93,1.55,1.55,0,0,0-1-.36h-1.64v2.53l.73.06V61h-2v-.39l.73-.06V55l-.73-.06v-.39Zm-1.45,3.06h1.38a1.91,1.91,0,0,0,1.29-.35,1.32,1.32,0,0,0,0-1.91,1.85,1.85,0,0,0-1.22-.35h-1.45Z"/><path class="cls-1" d="M156,60.64l.48,0,2.31-6.08h.5l2.29,6.08.49,0V61h-1.61v-.39l.57,0-.54-1.46h-2.92L157,60.59l.57,0V61H156Zm1.75-2h2.57L159,55.21h0Z"/><path class="cls-1" d="M169.75,54.52v1.37h-.48l0-.91h-1.8v5.6l.72.06V61h-2v-.39l.73-.06V55h-1.81l0,.91h-.48V54.52Z"/><path class="cls-1" d="M173.18,54.92v-.4h2v.4l-.73.06v5.6l.73.06V61h-2v-.39l.73-.06V55Z"/><path class="cls-1" d="M180.24,54.92l-.61,0,1.8,5,.13.43h0l.13-.43,1.8-5-.61,0v-.4h1.69v.4l-.51,0L181.82,61h-.5L179.05,55l-.5,0v-.4h1.69Z"/><path class="cls-1" d="M193.57,57.82a3.58,3.58,0,0,1-.78,2.39,2.54,2.54,0,0,1-2,.91,2.49,2.49,0,0,1-2-.92,3.58,3.58,0,0,1-.77-2.38v-.08a3.63,3.63,0,0,1,.77-2.39,2.49,2.49,0,0,1,2-.92,2.56,2.56,0,0,1,2,.92,3.58,3.58,0,0,1,.78,2.39Zm-.53-.09a3.21,3.21,0,0,0-.62-2,2,2,0,0,0-1.67-.78,2,2,0,0,0-1.63.78,3.26,3.26,0,0,0-.6,2v.09a3.3,3.3,0,0,0,.6,2.06,2,2,0,0,0,1.64.78,2,2,0,0,0,1.67-.78,3.3,3.3,0,0,0,.61-2.06Z"/><path class="cls-1" d="M98.45,19.7H95.86l-.65-3.62A6.24,6.24,0,0,0,93.13,15a9.56,9.56,0,0,0-3-.44,6.62,6.62,0,0,0-4.19,1.16,3.66,3.66,0,0,0-1.46,3A3.34,3.34,0,0,0,86,21.48a14.12,14.12,0,0,0,4.8,1.93,13.66,13.66,0,0,1,6.07,2.92,6.25,6.25,0,0,1,2.08,4.78A5.85,5.85,0,0,1,96.41,36a10.67,10.67,0,0,1-6.53,1.86,13.18,13.18,0,0,1-5.18-1,10.45,10.45,0,0,1-3.7-2.5V29.72h2.58l.66,3.63a8.17,8.17,0,0,0,2.36,1.34,9.18,9.18,0,0,0,3.28.52A6.87,6.87,0,0,0,94,34.12a3.49,3.49,0,0,0,1.51-3,3.79,3.79,0,0,0-1.31-2.92,11,11,0,0,0-4.6-2,15.22,15.22,0,0,1-6.27-2.81A5.8,5.8,0,0,1,81,18.78a6.06,6.06,0,0,1,2.52-5,10.34,10.34,0,0,1,6.55-2,12.42,12.42,0,0,1,4.84.91A11,11,0,0,1,98.45,15Z"/><path class="cls-1" d="M121.37,12.23v2.2l-2.83.49V29.37a5.61,5.61,0,0,0,1.63,4.36,6.15,6.15,0,0,0,4.31,1.48A6.68,6.68,0,0,0,129,33.73a5.4,5.4,0,0,0,1.72-4.36V14.92l-2.83-.49v-2.2H137v2.2l-2.84.49V29.37a7.7,7.7,0,0,1-2.68,6.32,10.71,10.71,0,0,1-7,2.2,10.16,10.16,0,0,1-6.78-2.2,7.85,7.85,0,0,1-2.59-6.32V14.92l-2.83-.49v-2.2h9.09Z"/><path class="cls-1" d="M161,12.24q4.14,0,6.34,1.84a6.38,6.38,0,0,1,2.21,5.2,5.42,5.42,0,0,1-1,3.27,6.9,6.9,0,0,1-2.93,2.24,5.15,5.15,0,0,1,3,2.2,7.33,7.33,0,0,1,.91,3.77v2a3.87,3.87,0,0,0,.29,1.71,1.21,1.21,0,0,0,1,.66l.83.11v2.24h-1.84a3,3,0,0,1-2.84-1.39,6.41,6.41,0,0,1-.84-3.37v-2a4.59,4.59,0,0,0-1.2-3.32,4.26,4.26,0,0,0-3.22-1.25h-5.49v8.61l2.83.49v2.19h-9.08V35.33l2.83-.49V14.92l-2.83-.49V12.24H161Zm-4.85,11.3h4.5a6.44,6.44,0,0,0,4.17-1.1,3.94,3.94,0,0,0,1.31-3.2,4.1,4.1,0,0,0-1.26-3.16A5.54,5.54,0,0,0,161,14.92h-4.85Z"/><path class="cls-1" d="M184.65,14.43v-2.2h9.09v2.2l-2.83.49V34.84l2.83.49v2.19h-9.09V35.33l2.84-.49V14.92Z"/><path class="cls-1" d="M227.28,12.23v5.59h-2.92l-.26-2.9h-5.61V34.84l2.83.49v2.19h-9.09V35.33l2.83-.49V14.92h-5.63l-.24,2.9h-2.94V12.23Z"/><path class="cls-1" d="M236.42,35.33l1.88-.26,8.84-22.84h2.94l8.68,22.84,1.86.26v2.19h-7.26V35.33l1.91-.33-1.67-4.65H243.47L241.75,35l1.92.33v2.19h-7.25Zm8.11-7.85h8l-3.93-10.86h-.1Z"/><path class="cls-1" d="M292.18,34.65a11.09,11.09,0,0,1-3.29,2.2,13.15,13.15,0,0,1-5.64,1A10.63,10.63,0,0,1,275,34.32a13.26,13.26,0,0,1-3.21-9.24v-.42a13.35,13.35,0,0,1,3.18-9.26,10.75,10.75,0,0,1,8.43-3.54,12.78,12.78,0,0,1,4.94.88,10.91,10.91,0,0,1,3.59,2.32v4.58h-2.4l-.83-3.49A7.52,7.52,0,0,0,286.61,15a8.31,8.31,0,0,0-2.89-.45,7.59,7.59,0,0,0-6.32,2.81,11.41,11.41,0,0,0-2.21,7.27v.45a11.71,11.71,0,0,0,2.14,7.33,7,7,0,0,0,5.92,2.8,11.37,11.37,0,0,0,3.39-.43,9.22,9.22,0,0,0,2.12-1V28.28l-4.16-.18V25.58h7.58Z"/><line class="cls-2" x1="43.03" y1="20.95" x2="42.74" y2="15.67"/><line class="cls-2" x1="44.04" y1="39.11" x2="43.13" y2="22.69"/><ellipse class="cls-2" cx="25.45" cy="7.64" rx="24.32" ry="4.41" transform="matrix(0.98, -0.18, 0.18, 0.98, -0.96, 4.67)"/><path class="cls-2" d="M51.67,53.43c.43,2.4-7,5.75-16.55,7.49S17.43,62.13,17,59.73"/><path class="cls-2" d="M51.3,45.28c7.76.67,13.12,3,13.77,6.59C66.17,58,53.38,65.38,36.48,68.45S5,69.07,3.9,63c-.66-3.6,3.54-7.66,10.57-11"/><path class="cls-2" d="M51.06,40c.43,2.4-7.77,5.89-18.32,7.81S13.29,49.37,12.86,47"/><line class="cls-2" x1="16.99" y1="59.73" x2="1.51" y2="11.99"/><line class="cls-2" x1="51.67" y1="53.43" x2="49.38" y2="3.3"/></g></g></svg>